<?xml version="1.0" encoding="UTF-8" standalone="no"?>
<!DOCTYPE svg PUBLIC "-//W3C//DTD SVG 1.1//EN" "http://www.w3.org/Graphics/SVG/1.1/DTD/svg11.dtd">
<svg width="100%" height="100%" viewBox="0 0 1279 1280" version="1.1" xmlns="http://www.w3.org/2000/svg" xmlns:xlink="http://www.w3.org/1999/xlink" xml:space="preserve" xmlns:serif="http://www.serif.com/" style="fill-rule:evenodd;clip-rule:evenodd;stroke-linejoin:round;stroke-miterlimit:2;">
    <g transform="matrix(0.1,0,0,-0.1,0,1280)">
        <path d="M8860,12794C8846,12792 8801,12785 8760,12779C8521,12746 8243,12632 7984,12462C7731,12295 7541,12137 7165,11780C6876,11506 6758,11402 6623,11301C6104,10915 5366,10643 4180,10400L4024,10368L3935,10426C3382,10783 2804,11046 2168,11230C1973,11287 1691,11352 1540,11376C1415,11395 1162,11398 1070,11381C674,11308 460,11037 410,10545C393,10387 402,10056 430,9790C524,8873 721,8058 1055,7195C1185,6859 1210,6767 1210,6627C1209,6494 1163,6389 1043,6249C1017,6218 926,6120 843,6031C759,5942 650,5815 601,5750C274,5316 86,4793 18,4130C1,3966 1,3417 18,3235C59,2789 120,2428 246,1875C321,1550 328,1512 346,1385C364,1255 392,1188 449,1134C482,1102 588,1045 597,1054C599,1055 582,1110 560,1176C229,2157 93,3369 215,4245C278,4694 395,5039 579,5311C663,5436 734,5517 828,5594C1245,5934 1786,5946 2420,5629C3151,5263 3649,4702 3785,4090C3811,3972 3816,3715 3795,3589C3714,3105 3391,2742 2932,2618C2811,2585 2559,2581 2412,2609C1954,2697 1554,3018 1344,3466C1319,3521 1282,3597 1264,3637C1200,3772 1094,3831 1040,3762C990,3700 1036,3490 1146,3280C1229,3120 1320,3000 1470,2849C1698,2620 1927,2490 2225,2422C2363,2390 2484,2380 2870,2370C3244,2360 3329,2351 3473,2305C3588,2268 3691,2218 3799,2146C3932,2057 4021,1981 4275,1740C4526,1502 4618,1423 4744,1338C4862,1259 4963,1209 5091,1167C5185,1135 5279,1115 5700,1035C6104,957 6326,839 6475,621L6521,553L6496,464C6429,223 6399,81 6409,61C6421,39 6516,0 6560,0C6618,0 6626,17 6690,273C6776,623 6808,710 6896,841C7006,1005 7106,1128 7244,1266C7638,1658 8126,1912 8607,1975C9218,2055 9782,1774 10089,1235C10221,1003 10285,753 10278,492L10275,360L10305,348C10401,308 10526,375 10566,487C10584,539 10583,696 10564,805C10517,1077 10341,1443 10133,1700C10072,1775 9912,1935 9813,2020L9760,2065L9996,2480C10703,3725 10765,3827 10860,3913C10954,3998 11079,4022 11197,3978C11275,3950 11382,3842 11428,3749C11524,3552 11510,3384 11365,2982C11249,2657 11224,2522 11233,2262C11241,2005 11294,1791 11410,1551C11559,1244 11769,999 12038,819C12161,736 12273,682 12417,634C12597,573 12689,586 12755,679L12785,722L12783,958C12779,1617 12615,2306 12311,2935C12208,3148 12121,3300 11985,3505C11847,3712 11742,3847 11529,4090C11334,4313 11254,4423 11189,4555C11123,4691 11100,4792 11100,4950C11100,5110 11116,5203 11194,5513C11298,5920 11335,6146 11349,6452C11371,6953 11299,7412 11110,7962C11077,8059 10982,8308 10899,8517C10535,9430 10488,9629 10445,10450C10421,10922 10402,11134 10369,11330C10290,11801 10118,12172 9861,12431C9676,12616 9484,12723 9238,12776C9168,12791 8912,12803 8860,12794ZM9170,12405C9588,12251 9934,11721 10079,11014C10187,10486 10164,9976 10010,9526C9977,9427 9972,9370 9995,9326C10003,9311 10052,9241 10104,9171C10668,8409 10846,7968 10954,7060C11015,6549 11008,6100 10929,5530C10884,5205 10794,4826 10734,4709C10727,4694 10684,4575 10639,4444C10595,4313 10536,4156 10509,4095C10315,3662 10009,3298 9567,2977C9333,2806 9120,2686 8684,2479C7635,1981 7204,1830 6686,1779C6511,1762 6122,1773 5950,1799C5580,1857 5158,1980 4705,2162C4247,2346 3776,2581 3734,2645C3710,2682 3723,2712 3789,2769C3822,2798 3872,2853 3901,2893C3930,2933 3974,2992 3998,3025C4052,3097 4103,3203 4125,3285C4148,3369 4155,3576 4141,3696C4123,3837 4087,4001 4025,4222C3903,4661 3807,4870 3639,5070C3609,5106 3562,5164 3535,5200C3507,5236 3457,5296 3423,5333C3327,5438 3327,5459 3424,5571C3459,5612 3524,5687 3569,5739C3788,5993 3958,6253 4244,6773C4521,7275 4620,7643 4689,8425C4729,8869 4726,9056 4676,9254C4632,9426 4513,9692 4434,9796C4385,9860 4370,9894 4370,9945C4370,9986 4375,9996 4415,10039C4510,10141 4691,10207 5230,10338C5610,10431 6128,10515 6405,10529C6507,10534 6555,10541 6582,10554C6650,10587 6770,10726 6905,10928C6976,11034 7070,11165 7114,11218C7218,11343 7495,11625 7622,11738C7982,12054 8503,12359 8797,12424C8906,12449 9076,12440 9170,12405ZM1552,10325C1680,10303 1812,10256 1950,10183C2389,9952 2584,9729 2640,9390C2672,9202 2610,9005 2456,8800C2333,8636 2034,8374 1890,8303C1717,8218 1587,8293 1418,8576C1272,8821 1163,9060 1096,9283C1052,9428 974,9775 960,9884C931,10117 1040,10290 1240,10329C1312,10343 1460,10341 1552,10325Z" style="fill:rgb(246,110,66);fill-rule:nonzero;"/>
        <path d="M8851,11829C8780,11817 8635,11768 8563,11731C8304,11600 8028,11340 7797,11007C7660,10811 7610,10699 7610,10588C7610,10456 7679,10382 7885,10295C7935,10274 8137,10176 8334,10077C8532,9979 8721,9887 8754,9875C8931,9809 9096,9803 9215,9858C9436,9962 9551,10272 9537,10730C9531,10920 9516,11024 9451,11315C9407,11511 9396,11550 9355,11629C9270,11797 9090,11868 8851,11829ZM8915,11487C8979,11420 9016,11305 9094,10940C9141,10717 9161,10547 9163,10354C9165,10208 9163,10190 9146,10171C9109,10130 9032,10147 8811,10241C8601,10331 8429,10434 8235,10585C8072,10712 8041,10773 8093,10869C8130,10939 8349,11219 8443,11317C8581,11460 8703,11529 8819,11530C8870,11530 8876,11527 8915,11487Z" style="fill:rgb(246,110,66);fill-rule:nonzero;"/>
        <path d="M8896,7075C8863,7062 8786,7017 8726,6977C8665,6936 8576,6877 8529,6846C8431,6783 8344,6694 8309,6623C8274,6551 8271,6449 8302,6391C8338,6323 8389,6288 8455,6282C8508,6278 8512,6279 8544,6314C8567,6338 8592,6386 8620,6457C8689,6637 8739,6697 8880,6763C8993,6817 9057,6805 9174,6708C9206,6681 9247,6652 9264,6642C9306,6620 9405,6620 9448,6643C9517,6680 9540,6772 9501,6849C9471,6907 9378,6986 9286,7030C9130,7105 9004,7120 8896,7075Z" style="fill:rgb(246,110,66);fill-rule:nonzero;"/>
        <path d="M10005,6115C9872,6092 9550,5986 9438,5929C9391,5905 9360,5865 9360,5828C9360,5789 9392,5728 9430,5696C9481,5654 9529,5660 9663,5725C9761,5773 9789,5782 9885,5796C9971,5808 10011,5820 10069,5848C10154,5891 10161,5903 10164,6007C10165,6067 10162,6082 10145,6098C10117,6126 10085,6129 10005,6115Z" style="fill:rgb(246,110,66);fill-rule:nonzero;"/>
        <path d="M4960,5864C4946,5862 4908,5855 4875,5849C4732,5824 4586,5718 4486,5567C4340,5345 4329,5258 4440,5183C4484,5152 4546,5153 4591,5183C4612,5197 4640,5233 4665,5280C4717,5377 4851,5516 4931,5554C5046,5609 5147,5607 5310,5545C5419,5504 5470,5501 5531,5533C5615,5578 5621,5642 5549,5724C5488,5794 5436,5815 5260,5844C5167,5860 4999,5871 4960,5864Z" style="fill:rgb(246,110,66);fill-rule:nonzero;"/>
        <path d="M10045,5513C9713,5423 9709,5421 9674,5385C9640,5348 9625,5298 9640,5270C9645,5260 9664,5247 9681,5241C9739,5221 9795,5228 9907,5271C10006,5309 10024,5312 10130,5316C10276,5321 10374,5337 10393,5358C10433,5403 10425,5483 10375,5535C10346,5566 10337,5570 10294,5569C10267,5568 10155,5543 10045,5513Z" style="fill:rgb(246,110,66);fill-rule:nonzero;"/>
        <path d="M7263,5475C7002,5428 6770,5280 6640,5079C6577,4981 6563,4893 6599,4815C6641,4725 6731,4673 6917,4634C7184,4578 7233,4560 7249,4517C7268,4468 7311,4128 7311,4027C7311,3931 7307,3910 7274,3810C7216,3634 7151,3552 7028,3495C6835,3407 6595,3467 6392,3654C6341,3700 6284,3744 6265,3750C6212,3768 6167,3742 6134,3674C6111,3626 6108,3611 6112,3550C6120,3437 6184,3354 6315,3288C6473,3207 6642,3175 6859,3183C7145,3193 7290,3266 7382,3443C7459,3591 7541,3679 7624,3701C7660,3711 7673,3710 7730,3689C7789,3667 7814,3665 7990,3662C8097,3660 8243,3663 8314,3669C8470,3682 8518,3701 8609,3786C8644,3818 8716,3881 8768,3925C8895,4031 8906,4053 8932,4256C8944,4348 8949,4431 8945,4457C8937,4512 8894,4563 8842,4578C8789,4594 8687,4593 8647,4576C8585,4550 8577,4531 8569,4397C8560,4261 8532,4135 8499,4088C8469,4046 8398,4003 8315,3977C8226,3949 8049,3947 7950,3973C7799,4013 7679,4101 7646,4195C7638,4221 7626,4288 7619,4344C7598,4533 7629,4661 7748,4878C7864,5087 7883,5133 7888,5219C7891,5290 7890,5298 7862,5342C7804,5432 7636,5490 7440,5489C7382,5489 7303,5482 7263,5475Z" style="fill:rgb(246,110,66);fill-rule:nonzero;"/>
        <path d="M9828,4739C9784,4726 9740,4679 9740,4644C9740,4604 9765,4556 9801,4526C9833,4499 9837,4498 9900,4506C10042,4524 10080,4518 10182,4467C10284,4416 10322,4410 10375,4436C10418,4456 10510,4553 10510,4578C10510,4634 10411,4689 10253,4721C10138,4744 9884,4755 9828,4739Z" style="fill:rgb(246,110,66);fill-rule:nonzero;"/>
        <path d="M4855,4609C4684,4550 4471,4421 4377,4320C4321,4260 4291,4197 4303,4166C4314,4137 4360,4127 4417,4138C4485,4152 4922,4334 4983,4374C5051,4419 5059,4542 4998,4608C4971,4636 4934,4636 4855,4609Z" style="fill:rgb(246,110,66);fill-rule:nonzero;"/>
        <path d="M4830,3973C4816,3971 4770,3958 4728,3944C4533,3880 4388,3719 4420,3601C4434,3549 4482,3493 4521,3485C4564,3475 4646,3518 4706,3581C4733,3609 4764,3637 4775,3643C4787,3649 4846,3654 4915,3655C5019,3655 5041,3659 5077,3678C5147,3715 5165,3771 5131,3845C5085,3947 4969,3996 4830,3973Z" style="fill:rgb(246,110,66);fill-rule:nonzero;"/>
        <path d="M4955,3331C4909,3310 4849,3254 4728,3116C4611,2985 4596,2925 4662,2860C4751,2771 4923,2819 5016,2960C5051,3012 5077,3027 5160,3045C5299,3074 5340,3107 5340,3191C5340,3248 5322,3271 5255,3300C5208,3320 5067,3350 5021,3350C5007,3350 4977,3341 4955,3331Z" style="fill:rgb(246,110,66);fill-rule:nonzero;"/>
        <path d="M3003,4475C2969,4460 2966,4452 2970,4380C2975,4286 3041,4168 3150,4060C3236,3973 3303,3935 3351,3945C3393,3954 3446,4004 3460,4045C3475,4091 3463,4128 3401,4222C3306,4367 3219,4442 3111,4474C3046,4493 3044,4493 3003,4475Z" style="fill:rgb(246,110,66);fill-rule:nonzero;"/>
        <path d="M2341,4194C2328,4185 2312,4162 2304,4144C2279,4084 2285,4066 2351,4008C2421,3948 2450,3902 2484,3803C2529,3672 2565,3644 2672,3656C2755,3665 2774,3685 2767,3754C2757,3848 2714,3943 2649,4014C2551,4121 2427,4210 2378,4210C2370,4210 2354,4203 2341,4194Z" style="fill:rgb(246,110,66);fill-rule:nonzero;"/>
        <path d="M1684,3875C1658,3835 1670,3771 1718,3698C1774,3611 1805,3541 1834,3431C1848,3379 1867,3329 1875,3321C1885,3311 1908,3305 1936,3305C1976,3305 1986,3310 2015,3341C2098,3432 2053,3631 1915,3779C1807,3894 1720,3930 1684,3875Z" style="fill:rgb(246,110,66);fill-rule:nonzero;"/>
    </g>
</svg>
